<svg width="327" height="172" viewBox="0 0 327 172" fill="none" xmlns="http://www.w3.org/2000/svg">
<rect width="327" height="172" rx="16" fill="#70B9BE"/>
<mask id="mask0_265_1951" style="mask-type:alpha" maskUnits="userSpaceOnUse" x="0" y="0" width="327" height="172">
<rect width="327" height="172" rx="16" fill="white"/>
</mask>
<g mask="url(#mask0_265_1951)">
<ellipse cx="335.67" cy="30" rx="187.034" ry="151" fill="url(#paint0_linear_265_1951)" fill-opacity="0.3"/>
<path d="M-167.43 16.0734C-157.624 14.0125 -131.133 16.9421 -103.617 45.1471C-69.2217 80.4033 2.25 152.298 50.1158 106.076C97.9816 59.8542 110.041 11.1877 81.4405 5.59582C52.8398 0.00396521 35.7157 49.1095 109.062 70.8998C182.408 92.69 271.032 43.8428 268.565 -30.6034" stroke="#3DA0A7"/>
<path d="M341.772 165.624C345.521 193.531 312.668 201.389 296.774 195.077C239.955 171.888 265.111 160.584 289.5 134.655C313.889 108.727 338.023 137.716 341.772 165.624Z" stroke="#3DA0A7"/>
<path d="M340.712 81.0656C369.927 51.8498 369.927 4.4817 340.712 -24.7341C311.496 -53.9498 264.128 -53.9498 234.912 -24.7341C205.696 4.4817 205.696 51.8498 234.912 81.0656C264.128 110.281 311.496 110.281 340.712 81.0656Z" fill="#3DA0A7"/>
<path d="M287.815 100.649C327.847 100.649 360.298 68.1973 360.298 28.166C360.298 -11.8652 327.847 -44.3169 287.815 -44.3169C247.784 -44.3169 215.332 -11.8652 215.332 28.166C215.332 68.1973 247.784 100.649 287.815 100.649Z" fill="#FFF6FA"/>
<path d="M338.121 78.4745C365.905 50.6897 365.905 5.64148 338.121 -22.1434C310.336 -49.9282 265.288 -49.9282 237.503 -22.1434C209.718 5.64148 209.718 50.6897 237.503 78.4745C265.288 106.259 310.336 106.259 338.121 78.4745Z" fill="#BCE5E8"/>
<path d="M258.154 92.8341C267.184 96.983 277.224 99.3145 287.815 99.3145C327.109 99.3145 358.964 67.4601 358.964 28.1662C358.964 5.44066 348.294 -14.7813 331.707 -27.8072C333.338 -19.373 333.911 -10.6765 334.446 -2.07856C335.031 7.3126 335.608 16.8171 333.89 26.0676C331.766 37.4923 326.224 48.0125 319.794 57.6912C312.774 68.2554 304.438 78.2111 293.786 85.0966C283.312 91.8687 270.34 95.4111 258.154 92.8341Z" fill="#8FD2D7"/>
<path d="M328.189 68.5429C350.488 46.2432 350.488 10.0883 328.189 -12.2114C305.889 -34.5111 269.734 -34.5111 247.434 -12.2114C225.135 10.0883 225.135 46.2432 247.434 68.5429C269.734 90.8425 305.889 90.8425 328.189 68.5429Z" fill="#FFF6FA"/>
<path d="M287.815 82.8171C317.998 82.8171 342.467 58.3489 342.467 28.1658C342.467 -2.01724 317.998 -26.4855 287.815 -26.4855C257.632 -26.4855 233.164 -2.01724 233.164 28.1658C233.164 58.3489 257.632 82.8171 287.815 82.8171Z" fill="#ADDFE2"/>
<path d="M322.209 62.5625C341.206 43.5656 341.206 12.7655 322.209 -6.23148C303.212 -25.2284 272.412 -25.2284 253.415 -6.2315C234.418 12.7654 234.418 43.5656 253.415 62.5625C272.412 81.5594 303.212 81.5594 322.209 62.5625Z" fill="#FFF6FA"/>
<path d="M287.815 74.7711C313.922 74.7711 335.086 53.9052 335.086 28.1658C335.086 2.42634 313.922 -18.4396 287.815 -18.4396C261.709 -18.4396 240.545 2.42634 240.545 28.1658C240.545 53.9052 261.709 74.7711 287.815 74.7711Z" fill="#BCE5E8"/>
<path d="M255.977 3.89835C245.742 7.37401 238.014 14.7334 233.861 24.6908C229.37 35.4625 233.457 45.6193 241.754 53.0924C249.175 59.7754 260.392 62.513 269.829 58.7616C278.944 55.1368 286.211 45.3546 284.3 35.1699C282.452 25.3207 274.2 18.2482 264.052 19.0105C252.719 19.8621 245.403 29.7282 242.028 39.6594C240.393 44.4694 239.724 49.6205 240.597 54.6355C241.581 60.2935 246.215 65.2526 250.397 68.8102C258.855 76.0019 270.292 78.3296 280.94 75.5938C303.131 69.893 313.039 41.797 304.713 22.0053C300.706 12.4822 292.083 5.25881 281.555 5.16376C272.094 5.07804 262.88 11.4255 259.559 20.2498C255.899 29.976 257.785 40.6005 264.432 48.5433C271.635 57.1495 282.603 57.1235 292.139 52.8949C301.313 48.8266 301.999 36.3198 296.349 29.0759C290.516 21.5972 279.386 19.3403 271.501 25.1828C263.575 31.0569 258.534 42.9636 262.634 52.429C266.564 61.4974 275.016 66.6745 284.574 67.9586C306.062 70.8472 328.215 47.9824 324.07 26.5675C319.925 5.1451 287.69 -0.967577 275.226 16.0044C268.161 25.6263 264.404 37.5125 263.426 49.3149C262.962 54.9039 263.284 60.7389 264.725 66.1657C266.262 71.9598 270.502 76.0951 274.904 79.869C279.228 83.5757 283.7 86.9601 289.39 88.1062C294.476 89.1312 299.746 87.2396 304.456 85.5418C307.139 84.5746 306.122 80.2156 303.408 81.194C296.585 83.654 290.652 85.1095 283.991 81.2257C277.996 77.7295 271.304 71.8237 269.071 65.1184C264.982 52.8371 268.836 37.2348 274.371 26.0531C277.435 19.864 281.147 14.0421 288.033 11.9101C294.517 9.90295 301.798 10.3856 307.952 13.2034C313.438 15.7156 317.544 20.6822 319.394 26.3588C321.651 33.2821 318.725 40.8596 315.335 46.8716C308.839 58.4 295.834 65.5675 282.612 63.1579C277.204 62.172 272.645 59.1511 269.192 54.9561C264.622 49.4043 264.936 42.5033 268.029 36.3664C271.331 29.8158 277.086 25.3487 284.671 26.5749C291.885 27.7416 296.461 35.3545 295.314 42.2816C294.155 49.2795 285.201 51.4338 279.213 51.4319C271.775 51.4301 265.897 44.7713 263.482 38.3381C258.914 26.1761 265.599 12.799 278.3 9.97001C292.128 6.88944 301.217 20.8722 303.183 32.6615C305.427 46.1206 297.922 61.1675 286.563 68.3555C274.727 75.8454 259.537 72.0977 250.204 62.5242C244.971 57.1551 243.862 51.1282 245.451 44.0185C247.116 36.5807 251.003 29.4971 257.714 25.576C271.654 17.4301 284.727 33.0659 277.877 46.2995C271.061 59.4642 253.42 57.6024 243.919 49.0484C239.04 44.6558 235.924 38.7984 236.478 32.1751C237.045 25.4083 241.349 19.0776 246.141 14.5639C249.221 11.6641 253.033 9.59728 257.017 8.24429C259.732 7.32553 258.709 2.96841 255.977 3.89835Z" fill="#FFA25F"/>
<path d="M263.342 68.3461C272.088 74.6974 282.558 76.7585 293.087 74.4011C304.476 71.8516 310.412 62.6509 311.722 51.5624C312.894 41.6442 308.656 30.9041 300.145 25.3654C291.925 20.0149 279.742 19.7279 272.528 27.1675C265.552 34.3611 264.54 45.185 271.02 53.029C278.257 61.7899 290.536 62.0713 300.596 59.0933C305.468 57.6508 310.059 55.2243 313.651 51.6164C317.702 47.5462 319.078 40.8987 319.568 35.4308C320.559 24.3739 315.857 13.6916 307.477 6.57444C290.012 -8.25442 261.35 -0.127142 249.995 18.0972C244.533 26.8656 243.61 38.0771 249.611 46.7281C255.002 54.5031 265.506 58.3627 274.628 55.981C284.684 53.3552 292.269 45.6826 294.918 35.6694C297.788 24.8193 291.434 15.8795 282.476 10.5328C273.859 5.38917 263.251 12.0498 260.597 20.8442C257.858 29.9238 262.438 40.3154 271.762 43.381C281.132 46.4616 293.766 43.7072 299.127 34.8941C304.265 26.45 303.611 16.5597 299.144 8.01315C289.099 -11.2008 257.641 -16.0909 242.548 -0.345177C227.447 15.4062 241.064 45.2559 262.118 45.636C274.054 45.8522 285.927 42.0579 296.129 36.044C300.959 33.1963 305.538 29.566 309.139 25.2554C312.982 20.656 313.912 14.8079 314.454 9.03255C314.985 3.3634 315.166 -2.24424 312.818 -7.55185C310.719 -12.2966 306.133 -15.5076 302.027 -18.3739C299.687 -20.0064 296.716 -16.6593 299.081 -15.01C305.028 -10.8597 309.642 -6.85295 310.315 0.827051C310.92 7.73923 309.961 16.6138 305.775 22.3072C298.106 32.736 283.143 38.5952 270.815 40.5297C263.993 41.6013 257.095 41.9293 251.38 37.5386C245.997 33.4032 242.19 27.1787 240.938 20.5274C239.821 14.5974 241.508 8.37843 245.073 3.59077C249.423 -2.24796 257.3 -4.23272 264.166 -4.93717C277.329 -6.28644 290.691 0.19528 296.354 12.3815C298.671 17.3667 298.835 22.8327 297.404 28.0732C295.508 35.0096 289.692 38.7369 282.895 39.7526C275.64 40.8372 268.67 38.7164 265.293 31.8154C262.082 25.2498 265.657 17.1207 271.974 14.0588C278.357 10.9652 285.286 17.0331 288.741 21.9251C293.032 27.9987 290.989 36.6422 287.129 42.33C279.835 53.0812 265.053 55.3436 255.412 46.607C244.916 37.0932 251.085 21.6008 259.578 13.1903C269.272 3.58891 285.892 1.03016 298.319 6.15699C311.267 11.4981 316.975 26.0661 314.543 39.2121C313.181 46.5846 308.898 50.9697 302.174 53.7745C295.141 56.7078 287.111 57.6229 280.036 54.4081C265.338 47.727 270.558 28.0248 285.32 25.9804C300.003 23.9453 308.667 39.4264 307.165 52.1215C306.394 58.6423 303.412 64.5667 297.683 67.938C291.831 71.382 284.176 71.5218 277.724 70.2135C273.577 69.373 269.69 67.4535 266.285 64.9805C263.972 63.3013 261.005 66.6502 263.342 68.3461Z" fill="#FFA25F"/>
<path d="M273.745 68.3461C282.491 74.6974 292.961 76.7585 303.49 74.4011C314.879 71.8516 320.814 62.6509 322.125 51.5624C323.297 41.6442 319.059 30.9041 310.548 25.3654C302.327 20.0149 290.145 19.7279 282.931 27.1675C275.955 34.3611 274.943 45.185 281.423 53.029C288.659 61.7899 300.939 62.0713 310.999 59.0933C315.87 57.6508 320.462 55.2243 324.053 51.6164C328.105 47.5462 329.48 40.8987 329.97 35.4308C330.962 24.3739 326.26 13.6916 317.879 6.57444C300.415 -8.25442 271.753 -0.127142 260.398 18.0972C254.935 26.8656 254.013 38.0771 260.014 46.7281C265.405 54.5031 275.909 58.3627 285.031 55.981C295.087 53.3552 302.672 45.6826 305.32 35.6694C308.19 24.8193 301.837 15.8795 292.879 10.5328C284.261 5.38917 273.654 12.0498 271 20.8442C268.26 29.9238 272.841 40.3154 282.165 43.381C291.535 46.4616 304.169 43.7072 309.53 34.8941C314.668 26.45 314.014 16.5597 309.547 8.01315C299.502 -11.2008 268.044 -16.0909 252.951 -0.345177C237.85 15.4062 251.467 45.2559 272.52 45.636C284.457 45.8522 296.33 42.0579 306.532 36.044C311.362 33.1963 315.941 29.566 319.542 25.2554C323.384 20.656 324.314 14.8079 324.857 9.03255C325.388 3.3634 325.569 -2.24424 323.22 -7.55185C321.122 -12.2966 316.536 -15.5076 312.43 -18.3739C310.089 -20.0064 307.119 -16.6593 309.484 -15.01C315.43 -10.8597 320.045 -6.85295 320.718 0.827051C321.323 7.73923 320.363 16.6138 316.178 22.3072C308.509 32.736 293.546 38.5952 281.218 40.5297C274.395 41.6013 267.498 41.9293 261.782 37.5386C256.4 33.4032 252.593 27.1787 251.34 20.5274C250.224 14.5974 251.911 8.37843 255.476 3.59077C259.825 -2.24796 267.703 -4.23272 274.569 -4.93717C287.731 -6.28644 301.094 0.19528 306.757 12.3815C309.074 17.3667 309.238 22.8327 307.806 28.0732C305.911 35.0096 300.095 38.7369 293.298 39.7526C286.043 40.8372 279.073 38.7164 275.696 31.8154C272.485 25.2498 276.059 17.1207 282.377 14.0588C288.762 10.9652 295.689 17.0331 299.144 21.9251C303.434 27.9987 301.392 36.6422 297.532 42.33C290.238 53.0812 275.456 55.3436 265.815 46.607C255.317 37.0932 261.488 21.6008 269.98 13.1903C279.675 3.58891 296.295 1.03016 308.721 6.15699C321.67 11.4981 327.378 26.0661 324.946 39.2121C323.584 46.5846 319.301 50.9697 312.577 53.7745C305.544 56.7078 297.514 57.6229 290.439 54.4081C275.741 47.727 280.961 28.0248 295.723 25.9804C310.406 23.9453 319.07 39.4264 317.568 52.1215C316.796 58.6423 313.815 64.5667 308.086 67.938C302.234 71.382 294.578 71.5218 288.126 70.2135C283.98 69.373 280.092 67.4535 276.688 64.9805C274.377 63.3013 271.41 66.6502 273.745 68.3461Z" fill="#FFA25F"/>
<path d="M252.056 49.5234C254.647 60.0175 261.318 68.346 270.886 73.3331C281.235 78.7283 291.703 75.5229 299.856 67.8932C307.149 61.0686 310.833 50.1273 307.9 40.4047C305.067 31.0139 295.941 22.9389 285.629 23.9732C275.659 24.9739 267.906 32.5924 267.8 42.7678C267.681 54.1303 276.887 62.2651 286.494 66.475C291.147 68.5138 296.222 69.6208 301.293 69.1791C307.014 68.6815 312.352 64.4865 316.252 60.6232C324.139 52.8109 327.436 41.6142 325.619 30.7698C321.832 8.17522 294.685 -4.09678 274.256 2.50977C264.425 5.68912 256.493 13.6636 255.5 24.1446C254.607 33.5652 260.146 43.2859 268.653 47.3486C278.033 51.825 288.779 50.8522 297.258 44.9072C306.448 38.4647 307.357 27.5364 303.958 17.6722C300.687 8.18453 288.285 6.4346 280.586 11.4459C272.638 16.6193 269.438 27.5159 274.587 35.8705C279.763 44.268 291.196 50.308 300.976 47.0299C310.348 43.8879 316.226 35.9078 318.323 26.4947C323.036 5.33134 302.145 -18.6908 280.454 -16.3911C258.756 -14.0895 249.915 17.5045 265.761 31.3717C274.746 39.2325 286.267 43.9904 297.942 45.9733C303.47 46.9125 309.312 47.0896 314.843 46.1168C320.747 45.0787 325.229 41.2098 329.367 37.1453C333.429 33.1552 337.183 28.9863 338.81 23.4159C340.265 18.4363 338.83 13.0244 337.541 8.18641C336.804 5.43011 332.376 6.07117 333.12 8.85729C334.989 15.8645 335.932 21.9027 331.495 28.2055C327.501 33.8802 321.044 40.0432 314.173 41.6962C301.586 44.7227 286.371 39.5512 275.702 33.0807C269.796 29.4988 264.313 25.3038 262.776 18.2611C261.328 11.6285 262.431 4.41815 265.765 -1.47464C268.735 -6.72633 274.034 -10.3939 279.848 -11.7525C286.938 -13.4111 294.239 -9.84791 299.94 -5.95853C310.87 1.49784 316.905 15.0669 313.375 28.0359C311.931 33.3398 308.531 37.6242 304.057 40.7067C298.134 44.7861 291.287 43.8841 285.435 40.278C279.19 36.4278 275.23 30.3132 277.101 22.8606C278.879 15.7714 286.856 11.8633 293.66 13.5965C300.535 15.3483 301.915 24.454 301.403 30.4213C300.766 37.8311 293.632 43.12 287.014 44.9781C274.505 48.491 261.749 40.6899 260.016 27.7936C258.128 13.7531 272.834 5.89039 284.748 4.93808C298.35 3.85159 312.7 12.6125 318.893 24.5453C325.345 36.9776 320.313 51.7934 309.979 60.2729C304.183 65.0288 298.084 65.6196 291.136 63.428C283.868 61.1357 277.14 56.6574 273.806 49.6353C266.879 35.0505 283.576 23.36 296.176 31.314C308.71 39.2288 305.35 56.6462 296.015 65.381C291.222 69.8668 285.12 72.4721 278.568 71.354C271.874 70.2134 265.933 65.3829 261.846 60.2225C259.218 56.9053 257.485 52.932 256.478 48.847C255.793 46.0739 251.365 46.7224 252.056 49.5234Z" fill="#EABF58"/>
<path d="M248.64 10.8903C241.361 19.6344 238.467 30.4863 240.209 41.709C242.095 53.8487 251.344 60.7217 262.901 62.8705C273.234 64.7919 284.811 61.087 291.22 52.5348C297.411 44.2715 298.561 31.4982 291.25 23.4045C284.179 15.5773 272.884 13.7621 264.192 20.022C254.486 27.0125 253.336 39.8901 255.765 50.6619C256.941 55.8782 259.17 60.8708 262.709 64.8944C266.7 69.4323 273.587 71.3388 279.297 72.2352C290.84 74.0448 302.387 69.8516 310.445 61.5436C327.235 44.2324 320.693 13.5646 302.344 0.370091C293.516 -5.97742 281.805 -7.72547 272.301 -2.0265C263.758 3.09474 258.974 13.8572 260.841 23.6039C262.899 34.3477 270.43 42.8496 280.763 46.3271C291.958 50.0953 301.791 44.0479 308.03 35.0093C314.031 26.3174 307.775 14.7107 298.723 11.3133C289.377 7.80413 278.143 11.8929 274.276 21.4701C270.389 31.0976 272.403 44.5585 281.285 50.8035C289.796 56.7876 300.229 56.7895 309.517 52.6914C330.397 43.4776 337.721 10.7803 322.235 -6.16934C306.742 -23.1246 274.444 -10.903 272.58 11.1847C271.524 23.7064 274.68 36.4406 280.286 47.5739C282.94 52.846 286.436 57.9077 290.711 61.989C295.275 66.3462 301.353 67.729 307.38 68.6999C313.297 69.6522 319.173 70.2318 324.911 68.1352C330.041 66.2604 333.733 61.6666 337.028 57.5554C338.907 55.211 335.599 51.8583 333.7 54.227C328.925 60.185 324.398 64.7509 316.284 64.9242C308.982 65.0789 299.728 63.4538 294.04 58.6606C283.62 49.881 278.508 33.757 277.334 20.6743C276.684 13.4341 276.82 6.16784 281.829 0.470734C286.548 -4.89464 293.348 -8.45975 300.423 -9.31143C306.729 -10.0718 313.144 -7.8671 317.924 -3.78762C323.755 1.18639 325.289 9.5988 325.552 16.8576C326.053 30.777 318.315 44.3591 305.123 49.4599C299.726 51.5471 293.973 51.3384 288.568 49.4692C281.414 46.9962 277.905 40.6281 277.312 33.4178C276.678 25.721 279.39 18.5498 286.872 15.4841C293.991 12.5675 302.281 16.8874 305.058 23.7381C307.862 30.6577 301.006 37.5122 295.629 40.8015C288.95 44.8847 280.016 42.1376 274.311 37.6892C263.529 29.2786 262.179 13.5981 272.029 4.0806C282.752 -6.28116 298.593 1.27583 306.835 10.7803C316.245 21.6303 317.775 39.264 311.526 51.959C305.015 65.1851 289.317 70.1666 275.679 66.7003C268.031 64.7546 263.724 59.9539 261.246 52.697C258.653 45.1064 258.251 36.6083 262.122 29.4016C270.161 14.4293 290.49 21.2837 291.61 36.9288C292.724 52.4938 275.864 60.5149 262.634 58.0549C255.839 56.7913 249.825 53.2467 246.683 46.9943C243.474 40.6076 243.86 32.5586 245.682 25.8738C246.855 21.5782 249.141 17.6273 251.974 14.2243C253.895 11.9041 250.584 8.55517 248.64 10.8903Z" fill="#F7D075"/>
<path d="M323.714 4.61592C322.035 -6.63665 315.863 -16.0218 306.329 -22.1904C296.015 -28.8641 284.729 -26.5364 275.431 -19.3447C267.118 -12.9114 262.177 -1.808 264.293 8.6693C266.337 18.7906 275.103 28.1517 286.011 28.0827C296.559 28.0175 305.434 20.7959 306.547 10.1435C307.791 -1.75393 298.947 -11.1839 289.291 -16.5418C284.615 -19.1378 279.407 -20.7964 274.049 -20.8337C268.005 -20.8766 261.998 -17.0058 257.53 -13.3419C248.495 -5.93218 243.936 5.47692 244.773 17.0183C246.514 41.0703 273.754 56.6055 295.816 51.6948C306.431 49.3317 315.529 41.7561 317.603 30.8707C319.467 21.0866 314.622 10.3522 306.105 5.25704C296.718 -0.359928 285.361 -0.399092 275.886 4.9961C265.621 10.8423 263.59 22.2048 266.18 32.8759C268.672 43.1408 281.498 46.1971 290.059 41.7039C298.898 37.0653 303.326 25.9619 298.753 16.6997C294.157 7.389 282.77 -0.0673504 272.198 2.40382C262.067 4.77248 255.12 12.555 251.996 22.2141C244.972 43.9272 264.498 71.1604 287.454 70.8883C310.419 70.6143 322.799 38.3755 307.559 22.2812C298.919 13.1569 287.314 7.03679 275.273 3.809C269.572 2.28082 263.469 1.5186 257.576 1.99383C251.286 2.49887 246.208 6.11426 241.473 9.96451C236.823 13.7458 232.479 17.7452 230.224 23.4218C228.207 28.4983 229.178 34.3109 230.052 39.5067C230.552 42.468 235.255 42.2313 234.752 39.2383C233.485 31.7093 233.092 25.291 238.362 19.1224C243.107 13.5706 250.481 7.74683 257.844 6.69202C271.333 4.7613 286.768 11.6809 297.31 19.5119C303.145 23.8467 308.479 28.7853 309.396 36.3162C310.259 43.4091 308.392 50.858 304.32 56.7042C300.689 61.9149 294.774 65.2359 288.548 66.0876C280.953 67.1275 273.655 62.6734 268.065 58.0349C257.345 49.1435 252.36 34.3277 257.336 21.0867C259.371 15.6691 263.357 11.5151 268.348 8.72708C274.956 5.03524 282.044 6.65473 287.819 11.0119C293.984 15.6616 297.53 22.4601 294.837 30.0861C292.275 37.3393 283.533 40.6491 276.572 38.163C269.541 35.649 268.989 25.9712 270.116 19.7691C271.514 12.0667 279.513 7.22873 286.63 5.93351C300.084 3.48471 312.683 12.9184 313.231 26.603C313.826 41.5026 297.64 48.2937 285.061 48.1167C270.7 47.9154 256.523 37.3188 251.21 24.2045C245.673 10.5404 252.406 -4.48973 264.073 -12.3579C270.616 -16.771 277.066 -16.7896 284.131 -13.806C291.522 -10.6863 298.13 -5.33023 300.931 2.35536C306.753 18.3229 288.104 28.9288 275.685 19.3497C263.329 9.82103 268.566 -8.10145 279.209 -16.3368C284.675 -20.5654 291.324 -22.6936 298.082 -20.8785C304.985 -19.0223 310.734 -13.3755 314.508 -7.56471C316.934 -3.83001 318.358 0.504793 319.012 4.88431C319.46 7.86238 324.163 7.62194 323.714 4.61592Z" fill="#FCDB9A"/>
<path d="M263.53 -29.5238L264.462 -25.1685L267.183 -19.382L268.756 76.5369L266.104 86.5707L264.017 89.8003L263.53 -29.5238Z" fill="url(#paint1_radial_265_1951)"/>
<path d="M265.724 76.8627C265.888 76.8925 266.007 76.9149 266.11 76.9372C266.223 76.941 266.376 76.9465 266.602 76.9614C267.243 77.0006 267.878 77.0248 268.519 77.0323C268.555 77.0323 268.588 77.0379 268.624 77.0397L268.756 76.5384L267.185 -19.3805L267.028 -19.7141C266.987 -19.6899 266.946 -19.6693 266.905 -19.6451C266.551 -19.4364 266.199 -19.2221 265.851 -19.0022C265.7 -18.8605 264.978 -18.2921 264.788 -18.1113C264.418 -17.7554 264.011 -17.4572 263.584 -17.2037L263.965 76.4154C264.542 76.5869 265.126 76.7546 265.724 76.8627Z" fill="#8A6D3F"/>
<path d="M262.103 -49.582L257.85 106.688C257.85 106.688 261.678 109.027 264.015 106.688V-49.582C264.017 -49.582 263.592 -52.7725 262.103 -49.582Z" fill="#912828"/>
<path d="M263.113 -50.9651L259.03 107.245C259.03 107.245 260.824 107.887 262.028 107.68L261.935 100.924L263.113 -50.9651Z" fill="#B95F5F"/>
<path d="M263.113 -50.9651L260.645 107.648C260.645 107.648 263.869 108.03 264.017 106.686L263.456 -50.9353C263.456 -50.9353 263.256 -51.0415 263.113 -50.9651C263.113 -50.9651 262.969 -50.8868 263.113 -50.9651Z" fill="#AF4040"/>
<path d="M262.004 38.8154C262.004 39.5646 261.741 40.174 261.417 40.174C261.093 40.174 260.83 39.5664 260.83 38.8154C260.83 38.0662 261.093 37.4568 261.417 37.4568C261.741 37.4568 262.004 38.0644 262.004 38.8154Z" fill="#FFA773"/>
<path d="M250.658 -11.8138L251.162 -6.46706L253.131 70.8939L251.896 73.1992C251.896 73.1992 250.524 74.6193 250.66 76.0207L248.715 75.3498L249.182 -15.6976L250.658 -11.8138Z" fill="url(#paint2_radial_265_1951)"/>
<path d="M251.107 -7.02969C251.055 -6.97378 251.003 -6.91971 250.949 -6.86381C250.433 -6.12954 249.814 -5.49967 249.126 -4.9909L248.748 68.5589C249.218 68.7136 249.676 68.9037 250.097 69.1814C250.643 69.541 251.158 69.9417 251.666 70.3517C252.06 70.6443 252.462 70.9164 252.915 71.1196C252.939 71.1307 252.962 71.1475 252.986 71.1587L253.129 70.8922L251.16 -6.46874L251.107 -7.02969Z" fill="#8A6D3F"/>
<path d="M247.704 -49.582L243.452 106.688C243.452 106.688 247.28 109.027 249.617 106.688V-49.582C249.618 -49.582 249.193 -52.7725 247.704 -49.582Z" fill="#912828"/>
<path d="M248.715 -50.9651L244.631 107.245C244.631 107.245 246.426 107.887 247.63 107.68L247.537 100.924L248.715 -50.9651Z" fill="#B95F5F"/>
<path d="M248.715 -50.9651L246.247 107.648C246.247 107.648 249.471 108.03 249.618 106.686L249.058 -50.9353C249.056 -50.9353 248.856 -51.0415 248.715 -50.9651C248.715 -50.9651 248.571 -50.8868 248.715 -50.9651Z" fill="#AF4040"/>
<path d="M247.606 38.8154C247.606 39.5646 247.343 40.174 247.019 40.174C246.695 40.174 246.432 39.5664 246.432 38.8154C246.432 38.0662 246.695 37.4568 247.019 37.4568C247.343 37.4568 247.606 38.0644 247.606 38.8154Z" fill="#FFA773"/>
<path d="M251.161 -6.46716L254.658 71.1584L253.131 70.8919L251.161 -6.46716Z" fill="#FFD38F"/>
<path d="M267.183 -19.3822L269.678 76.6131L268.622 77.038L267.183 -19.3822Z" fill="#FFD38F"/>
<path d="M261.417 83.7696C261.417 84.8114 261.029 85.6575 260.55 85.6575C260.071 85.6575 259.684 84.8114 259.684 83.7696C259.684 82.7278 260.071 81.8818 260.55 81.8818C261.029 81.8818 261.417 82.726 261.417 83.7696Z" fill="white"/>
<path d="M246.726 46.0986C246.99 46.0986 247.205 45.6655 247.205 45.1313C247.205 44.5972 246.99 44.1641 246.726 44.1641C246.461 44.1641 246.247 44.5972 246.247 45.1313C246.247 45.6655 246.461 46.0986 246.726 46.0986Z" fill="white"/>
<path d="M324.303 59.0093C340.28 59.0093 353.232 46.633 353.232 31.3661C353.232 16.0992 340.28 3.72296 324.303 3.72296C308.326 3.72296 295.374 16.0992 295.374 31.3661C295.374 46.633 308.326 59.0093 324.303 59.0093Z" fill="#5C1A09"/>
<path d="M323.697 58.3719C339.34 58.3719 352.021 46.1383 352.021 31.0474C352.021 15.9566 339.34 3.72296 323.697 3.72296C308.055 3.72296 295.374 15.9566 295.374 31.0474C295.374 46.1383 308.055 58.3719 323.697 58.3719Z" fill="#6A2A2A"/>
<path d="M324.58 58.0033C337.375 58.0033 347.748 46.8072 347.748 32.9962C347.748 19.1851 337.375 7.98904 324.58 7.98904C311.784 7.98904 301.411 19.1851 301.411 32.9962C301.411 46.8072 311.784 58.0033 324.58 58.0033Z" fill="#D34040"/>
<path d="M324.58 57.0073C336.866 57.0073 346.825 46.2572 346.825 32.9963C346.825 19.7355 336.866 8.98541 324.58 8.98541C312.294 8.98541 302.334 19.7355 302.334 32.9963C302.334 46.2572 312.294 57.0073 324.58 57.0073Z" fill="#F35C53"/>
<path d="M339.861 49.5C348.304 40.3873 348.304 25.6127 339.861 16.5C331.418 7.38729 317.73 7.38731 309.287 16.5C300.844 25.6127 300.844 40.3873 309.287 49.5C317.73 58.6127 331.418 58.6127 339.861 49.5Z" fill="#F35C53"/>
<path d="M324.58 56.019C336.36 56.019 345.91 45.7113 345.91 32.9962C345.91 20.2811 336.36 9.97339 324.58 9.97339C312.799 9.97339 303.249 20.2811 303.249 32.9962C303.249 45.7113 312.799 56.019 324.58 56.019Z" fill="#C02E24"/>
<path d="M339.277 48.8696C347.397 40.1051 347.397 25.8949 339.277 17.1304C331.156 8.36586 317.991 8.36586 309.871 17.1304C301.751 25.8949 301.751 40.1051 309.871 48.8696C317.991 57.6341 331.156 57.6341 339.277 48.8696Z" fill="#FF9D97"/>
<path d="M339.849 47.2536C346.846 38.1593 345.605 24.5915 337.078 16.949C328.551 9.30653 315.966 10.4835 308.97 19.5778C301.973 28.6721 303.214 42.2399 311.741 49.8824C320.269 57.5249 332.853 56.3479 339.849 47.2536Z" fill="#DF6565"/>
<path d="M324.579 52.139C334.374 52.139 342.315 43.5685 342.315 32.9963C342.315 22.424 334.374 13.8535 324.579 13.8535C314.785 13.8535 306.844 22.424 306.844 32.9963C306.844 43.5685 314.785 52.139 324.579 52.139Z" fill="#FF9D97"/>
<path d="M330.268 50.312C339.126 46.9067 343.75 36.3953 340.595 26.8341C337.44 17.273 327.701 12.2826 318.843 15.6879C309.985 19.0932 305.361 29.6046 308.516 39.1658C311.671 48.727 321.41 53.7173 330.268 50.312Z" fill="#FF8585"/>
<path d="M324.58 49.8349C333.195 49.8349 340.18 42.2961 340.18 32.9965C340.18 23.6969 333.195 16.158 324.58 16.158C315.964 16.158 308.979 23.6969 308.979 32.9965C308.979 42.2961 315.964 49.8349 324.58 49.8349Z" fill="#F26C6C"/>
<path d="M324.579 49.2511C332.897 49.2511 339.639 41.9736 339.639 32.9963C339.639 24.019 332.897 16.7415 324.579 16.7415C316.262 16.7415 309.52 24.019 309.52 32.9963C309.52 41.9736 316.262 49.2511 324.579 49.2511Z" fill="#FF8585"/>
<path d="M331.335 34.7799C332.242 30.7424 329.945 26.6755 326.205 25.6962C322.464 24.717 318.696 27.1962 317.789 31.2337C316.882 35.2712 319.179 39.338 322.919 40.3173C326.66 41.2965 330.428 38.8174 331.335 34.7799Z" fill="#CA4844"/>
<path d="M325.152 39.8065C328.657 39.4559 331.234 36.1052 330.91 32.3225C330.585 28.5399 327.48 25.7577 323.976 26.1084C320.471 26.459 317.894 29.8097 318.219 33.5923C318.543 37.375 321.648 40.1572 325.152 39.8065Z" fill="#FF928A"/>
<path d="M325.115 39.3746C328.398 39.0462 330.813 35.9072 330.508 32.3636C330.204 28.82 327.296 26.2136 324.013 26.5421C320.729 26.8706 318.315 30.0096 318.619 33.5532C318.923 37.0968 321.832 39.7031 325.115 39.3746Z" fill="#FF685F"/>
<path d="M332.213 16.3913C330.413 19.6857 328.612 22.9822 326.813 26.2766C326.886 26.5684 327.251 26.6711 327.508 26.5503C327.766 26.4296 327.934 26.1639 328.088 25.9103C329.142 24.1917 330.195 22.473 331.157 20.694C331.775 19.5529 332.369 18.3414 332.449 17.0232C332.463 16.7978 332.42 16.51 332.216 16.4557L332.213 16.3913Z" fill="#CA4844"/>
<path d="M325.35 30.2733C326.826 27.4076 328.303 24.5398 329.778 21.674C330.859 19.573 331.954 17.4417 332.526 15.1354C334.721 15.5862 336.768 16.7132 338.373 18.3534C333.973 22.4911 329.839 26.9729 326.023 31.7485L325.35 30.2733Z" fill="#DF6565"/>
<path d="M327.647 33.0188C330.518 33.4977 333.389 33.9767 336.261 34.4557C338.366 34.8079 340.499 35.16 342.617 34.9266C342.921 37.2893 342.609 39.7405 341.729 41.93C336.878 38.9576 331.823 36.3736 326.617 34.2102L327.647 33.0188Z" fill="#DF6565"/>
<path d="M311.631 46.2586C314.038 43.1775 317.086 40.7726 320.105 38.3978C319.918 38.0597 319.67 37.7599 319.38 37.5204C317.793 38.8446 316.284 40.2755 314.864 41.8029C313.605 43.1553 312.401 44.6124 311.634 46.3411L311.631 46.2586Z" fill="#CA4844"/>
<path d="M322.337 35.2621C320.176 37.3591 318.015 39.4541 315.855 41.5511C314.271 43.0886 312.669 44.6463 311.494 46.5642C309.607 45.3225 308.045 43.5112 307.033 41.3901C312.235 39.2166 317.287 36.6265 322.133 33.644L322.337 35.2621Z" fill="#DF6565"/>
<path d="M325.04 52.3403C324.365 48.2308 324.059 44.0489 324.128 39.875C324.466 39.7643 324.818 39.714 325.171 39.7261C325.911 43.8456 325.948 48.1121 325.281 52.2477L325.04 52.3403Z" fill="#CA4844"/>
<path d="M325.538 36.335C326.533 39.2812 327.527 42.2275 328.523 45.1738C329.252 47.3332 329.994 49.5207 331.204 51.4125C329.433 52.8393 327.292 53.7268 325.092 53.9482C325.167 47.9289 324.826 41.9015 324.072 35.9365L325.538 36.335Z" fill="#DF6565"/>
<path d="M310.114 21.5592C311.179 21.8007 311.884 22.8492 312.633 23.7005C314.492 25.8176 317.131 27.0653 318.749 29.4018C318.911 29.1885 319.074 28.9752 319.236 28.7618C319.286 28.6954 319.338 28.625 319.344 28.5405C319.351 28.4338 319.284 28.3392 319.221 28.2567C317.077 25.4875 314.746 22.7163 311.684 21.2653C311.123 20.9997 310.422 20.7985 309.935 21.1989C309.932 21.2794 309.926 21.3619 309.921 21.4424L310.114 21.5592Z" fill="#CA4844"/>
<path d="M321.69 30.845C319.405 28.9069 317.123 26.9669 314.839 25.0289C313.165 23.6081 311.468 22.1711 309.516 21.2514C310.327 19.0317 311.712 17.0615 313.474 15.6205C316.35 20.7805 319.579 25.7091 323.131 30.3519L321.69 30.845Z" fill="#DF6565"/>
<path d="M323.591 25.111C322.48 24.1389 321.91 22.4967 322.156 20.9753C322.271 20.2589 322.607 19.5183 323.228 19.2305C324.028 18.8602 325.005 19.4378 325.374 20.2891C325.741 21.1403 325.62 22.1526 325.316 23.0321C325.012 23.9156 324.535 24.7286 323.923 25.4028C323.845 25.3585 323.658 25.1693 323.591 25.111Z" fill="#CA4844"/>
<path d="M323.796 24.3201C322.883 23.5211 322.415 22.1707 322.616 20.921C322.711 20.3313 322.987 19.7215 323.496 19.4861C324.152 19.1802 324.958 19.6571 325.26 20.3575C325.562 21.0578 325.461 21.889 325.213 22.6135C324.964 23.34 324.57 24.0081 324.069 24.5636C324.005 24.5233 323.852 24.3684 323.796 24.3201Z" fill="#FAD383"/>
<path d="M324.749 21.3138C324.522 21.6096 324.115 21.6498 323.839 21.4043C323.563 21.1588 323.528 20.7201 323.755 20.4222C323.983 20.1264 324.389 20.0862 324.665 20.3317C324.939 20.5772 324.977 21.0179 324.749 21.3138Z" fill="#E4B34C"/>
<path d="M324.441 23.167C324.285 23.3702 324.009 23.4044 323.826 23.2394C323.643 23.0764 323.623 22.7765 323.78 22.5733C323.936 22.37 324.212 22.3358 324.395 22.5008C324.578 22.6638 324.598 22.9637 324.441 23.167Z" fill="#E4B34C"/>
<path d="M324.663 20.7824C324.55 20.9313 324.326 20.9313 324.162 20.7864C324 20.6395 323.959 20.402 324.072 20.2531C324.186 20.1042 324.412 20.1042 324.574 20.2491C324.738 20.396 324.777 20.6355 324.663 20.7824Z" fill="#FFEAB8"/>
<path d="M317.217 32.7749C316.249 33.912 314.694 34.4232 313.303 34.0629C312.647 33.8939 311.983 33.4853 311.755 32.7991C311.463 31.9156 312.059 30.8973 312.868 30.5532C313.678 30.209 314.606 30.4042 315.4 30.7866C316.198 31.169 316.922 31.7345 317.506 32.4348C317.461 32.5153 317.274 32.7045 317.217 32.7749Z" fill="#CA4844"/>
<path d="M316.499 32.5038C315.703 33.4376 314.426 33.8583 313.281 33.5644C312.742 33.4256 312.196 33.0895 312.009 32.526C311.769 31.7995 312.259 30.9623 312.925 30.6805C313.59 30.3988 314.353 30.5578 315.007 30.8717C315.664 31.1857 316.257 31.6506 316.738 32.2261C316.7 32.2905 316.547 32.4475 316.499 32.5038Z" fill="#FAD383"/>
<path d="M313.777 31.2885C314.036 31.5521 314.049 31.9928 313.805 32.2726C313.56 32.5523 313.152 32.5664 312.893 32.3028C312.634 32.0391 312.621 31.5984 312.865 31.3187C313.109 31.0389 313.517 31.0248 313.777 31.2885Z" fill="#E4B34C"/>
<path d="M315.473 31.737C315.652 31.9181 315.665 32.218 315.503 32.4051C315.341 32.5923 315.063 32.5963 314.884 32.4132C314.705 32.2321 314.692 31.9322 314.854 31.745C315.017 31.5579 315.294 31.5539 315.473 31.737Z" fill="#FFE199"/>
<path d="M313.283 31.3488C313.413 31.4816 313.4 31.7231 313.255 31.8901C313.109 32.0572 312.885 32.0853 312.757 31.9525C312.626 31.8197 312.639 31.5782 312.785 31.4111C312.928 31.2441 313.152 31.2159 313.283 31.3488Z" fill="#FFEAB8"/>
<path d="M321.902 40.436C322.376 41.8931 322.062 43.6137 321.115 44.7709C320.668 45.3163 320.023 45.757 319.355 45.6504C318.494 45.5135 317.944 44.467 318.042 43.5332C318.143 42.5995 318.738 41.8086 319.424 41.231C320.112 40.6514 320.914 40.2288 321.762 40.0013C321.805 40.0818 321.874 40.3475 321.902 40.436Z" fill="#CA4844"/>
<path d="M321.343 40.9914C321.732 42.1889 321.475 43.6036 320.696 44.5555C320.328 45.0043 319.797 45.3666 319.249 45.278C318.54 45.1653 318.087 44.306 318.171 43.5372C318.255 42.7685 318.744 42.1184 319.307 41.6435C319.872 41.1665 320.532 40.8204 321.229 40.6312C321.264 40.6996 321.318 40.919 321.343 40.9914Z" fill="#FFE199"/>
<path d="M319.07 43.0123C319.407 42.8895 319.775 43.0847 319.888 43.449C320.002 43.8132 319.821 44.2097 319.484 44.3324C319.146 44.4552 318.779 44.26 318.665 43.8957C318.55 43.5315 318.732 43.135 319.07 43.0123Z" fill="#E4B34C"/>
<path d="M320.233 41.6074C320.466 41.5229 320.716 41.6517 320.792 41.8932C320.869 42.1367 320.742 42.4023 320.509 42.4868C320.276 42.5714 320.026 42.4426 319.95 42.2011C319.873 41.9576 320 41.6919 320.233 41.6074Z" fill="#E4B34C"/>
<path d="M318.885 43.5112C319.055 43.4488 319.247 43.5756 319.314 43.7929C319.381 44.0103 319.299 44.2357 319.131 44.296C318.962 44.3584 318.77 44.2316 318.702 44.0143C318.635 43.799 318.717 43.5736 318.885 43.5112Z" fill="#FFEAB8"/>
<path d="M325.721 11.9273C325.486 12.2312 325.105 12.3057 324.868 12.0943C324.632 11.883 324.63 11.4644 324.865 11.1606C325.1 10.8567 325.48 10.7822 325.717 10.9935C325.954 11.2048 325.956 11.6234 325.721 11.9273Z" fill="#FFEAB8"/>
<path d="M323.353 55.538C323.174 55.7695 322.771 55.7272 322.452 55.4434C322.133 55.1577 322.021 54.7391 322.2 54.5056C322.379 54.2742 322.782 54.3164 323.101 54.6002C323.42 54.886 323.532 55.3046 323.353 55.538Z" fill="#FFEAB8"/>
<path d="M318.663 50.9779C318.574 51.0946 318.406 51.1026 318.289 50.998C318.171 50.8933 318.149 50.7142 318.238 50.5975C318.328 50.4808 318.496 50.4727 318.613 50.5774C318.73 50.682 318.753 50.8632 318.663 50.9779Z" fill="#FFEAB8"/>
<path d="M277.846 7.34235C279.77 7.34235 281.33 6.56262 281.33 5.60079C281.33 4.63895 279.77 3.85922 277.846 3.85922C275.923 3.85922 274.363 4.63895 274.363 5.60079C274.363 6.56262 275.923 7.34235 277.846 7.34235Z" fill="white"/>
<path d="M276.105 23.8876C277.067 23.8876 277.846 23.3027 277.846 22.5814C277.846 21.86 277.067 21.2752 276.105 21.2752C275.143 21.2752 274.363 21.86 274.363 22.5814C274.363 23.3027 275.143 23.8876 276.105 23.8876Z" fill="white"/>
<path d="M279.588 41.7383C279.588 41.9779 279.199 42.1737 278.717 42.1737C278.236 42.1737 277.846 41.9795 277.846 41.7383C277.846 41.4972 278.236 41.3029 278.717 41.3029C279.199 41.3029 279.588 41.4988 279.588 41.7383Z" fill="white"/>
<path d="M283.942 68.7325C283.942 69.4533 283.357 70.0387 282.636 70.0387C281.914 70.0387 281.33 69.4533 281.33 68.7325C281.33 68.0117 281.914 67.4263 282.636 67.4263C283.359 67.4263 283.942 68.0117 283.942 68.7325Z" fill="white"/>
</g>
<path fill-rule="evenodd" clip-rule="evenodd" d="M242.167 146C242.167 149.406 239.406 152.167 236 152.167C232.594 152.167 229.833 149.406 229.833 146C229.833 142.594 232.594 139.834 236 139.834C239.406 139.834 242.167 142.594 242.167 146Z" stroke="white" stroke-width="1.5" stroke-linecap="round" stroke-linejoin="round"/>
<path d="M238.288 147.962L235.774 146.463V143.231" stroke="white" stroke-width="1.5" stroke-linecap="round" stroke-linejoin="round"/>
<path opacity="0.75" d="M253.522 150V149.44L257.232 144.946C257.68 144.428 257.904 143.924 257.904 143.448C257.904 142.594 257.19 142.006 256.28 142.006C255.44 142.006 254.754 142.552 254.628 143.448L253.41 143.154C253.536 142.426 253.858 141.838 254.39 141.404C254.922 140.97 255.552 140.746 256.28 140.746C257.092 140.746 257.778 140.998 258.324 141.502C258.87 142.006 259.15 142.65 259.15 143.448C259.15 144.274 258.814 145.058 258.156 145.814L255.678 148.74H259.164V150H253.522ZM260.989 145.45C260.989 144.064 261.185 143.028 261.647 142.132C262.137 141.236 263.033 140.746 264.307 140.746C265.595 140.746 266.491 141.236 266.953 142.132C267.443 143.028 267.611 144.05 267.611 145.45C267.611 146.836 267.443 147.844 266.953 148.74C266.491 149.636 265.581 150.126 264.307 150.126C261.689 150.126 260.989 148.012 260.989 145.45ZM262.249 145.45C262.249 147.578 262.781 148.88 264.307 148.88C265.833 148.88 266.365 147.578 266.365 145.45C266.365 143.308 265.833 142.006 264.307 142.006C262.781 142.006 262.249 143.308 262.249 145.45ZM275.314 140.354L278.716 147.438L282.118 140.354H283.308L284.484 150H283.196L282.314 142.748L279.304 148.936H278.156L275.118 142.748L274.236 150H272.948L274.124 140.354H275.314ZM287.572 150H286.312V143.462H287.572V150ZM286.312 141.642C285.976 141.32 285.976 140.788 286.312 140.466C286.662 140.144 287.222 140.144 287.558 140.466C287.908 140.788 287.908 141.32 287.558 141.642C287.222 141.964 286.662 141.964 286.312 141.642ZM290.977 146.472V150H289.703V143.462H290.977V144.442C291.355 143.714 292.223 143.322 293.021 143.322C294.645 143.322 295.541 144.372 295.541 146.22V150H294.267V146.304C294.267 145.226 293.721 144.568 292.825 144.568C291.803 144.568 290.977 145.184 290.977 146.472Z" fill="white"/>
<path d="M33.8176 54.3023C29.1749 58.0506 21.376 57.8315 21.376 57.8315C21.376 57.8315 21.1046 51.5352 25.7474 47.7869C30.3902 44.0386 38.189 44.2577 38.189 44.2577C38.189 44.2577 38.4604 50.554 33.8176 54.3023Z" fill="#FFF1CE"/>
<path d="M134.064 63.9903C134.244 63.7368 134.26 63.4054 134.106 63.1076L129.753 54.6576C129.388 53.9483 128.327 53.8075 127.899 54.4115L125.767 57.4211C125.587 57.6746 125.572 58.006 125.725 58.3038L130.078 66.7538C130.444 67.4631 131.504 67.6039 131.932 66.9999L134.064 63.9903Z" fill="#FFF1CE"/>
<ellipse cx="63.1705" cy="9" rx="4.95455" ry="4" fill="#FFF1CE"/>
<path d="M35.426 108.364V121H32.348V113.422L29.522 121H27.038L24.194 113.404V121H21.116V108.364H24.752L28.298 117.112L31.808 108.364H35.426ZM39.1874 109.912C38.6474 109.912 38.2034 109.756 37.8554 109.444C37.5194 109.12 37.3514 108.724 37.3514 108.256C37.3514 107.776 37.5194 107.38 37.8554 107.068C38.2034 106.744 38.6474 106.582 39.1874 106.582C39.7154 106.582 40.1474 106.744 40.4834 107.068C40.8314 107.38 41.0054 107.776 41.0054 108.256C41.0054 108.724 40.8314 109.12 40.4834 109.444C40.1474 109.756 39.7154 109.912 39.1874 109.912ZM40.7174 110.956V121H37.6394V110.956H40.7174ZM54.6285 118.768H49.9125L49.1565 121H45.9345L50.5065 108.364H54.0705L58.6425 121H55.3845L54.6285 118.768ZM53.8365 116.392L52.2705 111.766L50.7225 116.392H53.8365ZM59.422 115.978C59.422 114.934 59.632 114.022 60.052 113.242C60.484 112.462 61.078 111.862 61.834 111.442C62.602 111.022 63.478 110.812 64.462 110.812C65.722 110.812 66.772 111.142 67.612 111.802C68.464 112.462 69.022 113.392 69.286 114.592H66.01C65.734 113.824 65.2 113.44 64.408 113.44C63.844 113.44 63.394 113.662 63.058 114.106C62.722 114.538 62.554 115.162 62.554 115.978C62.554 116.794 62.722 117.424 63.058 117.868C63.394 118.3 63.844 118.516 64.408 118.516C65.2 118.516 65.734 118.132 66.01 117.364H69.286C69.022 118.54 68.464 119.464 67.612 120.136C66.76 120.808 65.71 121.144 64.462 121.144C63.478 121.144 62.602 120.934 61.834 120.514C61.078 120.094 60.484 119.494 60.052 118.714C59.632 117.934 59.422 117.022 59.422 115.978ZM80.4004 115.816C80.4004 116.104 80.3824 116.404 80.3464 116.716H73.3804C73.4284 117.34 73.6264 117.82 73.9744 118.156C74.3344 118.48 74.7724 118.642 75.2884 118.642C76.0564 118.642 76.5904 118.318 76.8904 117.67H80.1664C79.9984 118.33 79.6924 118.924 79.2484 119.452C78.8164 119.98 78.2704 120.394 77.6104 120.694C76.9504 120.994 76.2124 121.144 75.3964 121.144C74.4124 121.144 73.5364 120.934 72.7684 120.514C72.0004 120.094 71.4004 119.494 70.9684 118.714C70.5364 117.934 70.3204 117.022 70.3204 115.978C70.3204 114.934 70.5304 114.022 70.9504 113.242C71.3824 112.462 71.9824 111.862 72.7504 111.442C73.5184 111.022 74.4004 110.812 75.3964 110.812C76.3684 110.812 77.2324 111.016 77.9884 111.424C78.7444 111.832 79.3324 112.414 79.7524 113.17C80.1844 113.926 80.4004 114.808 80.4004 115.816ZM77.2504 115.006C77.2504 114.478 77.0704 114.058 76.7104 113.746C76.3504 113.434 75.9004 113.278 75.3604 113.278C74.8444 113.278 74.4064 113.428 74.0464 113.728C73.6984 114.028 73.4824 114.454 73.3984 115.006H77.2504ZM88.1982 110.848C89.3502 110.848 90.2742 111.232 90.9702 112C91.6662 112.756 92.0142 113.8 92.0142 115.132V121H88.9542V115.546C88.9542 114.874 88.7802 114.352 88.4322 113.98C88.0842 113.608 87.6162 113.422 87.0282 113.422C86.4402 113.422 85.9722 113.608 85.6242 113.98C85.2762 114.352 85.1022 114.874 85.1022 115.546V121H82.0242V107.68H85.1022V112.306C85.4142 111.862 85.8402 111.508 86.3802 111.244C86.9202 110.98 87.5262 110.848 88.1982 110.848ZM107.598 112.432C107.598 113.164 107.43 113.836 107.094 114.448C106.758 115.048 106.242 115.534 105.546 115.906C104.85 116.278 103.986 116.464 102.954 116.464H101.046V121H97.9676V108.364H102.954C103.962 108.364 104.814 108.538 105.51 108.886C106.206 109.234 106.728 109.714 107.076 110.326C107.424 110.938 107.598 111.64 107.598 112.432ZM102.72 114.016C103.308 114.016 103.746 113.878 104.034 113.602C104.322 113.326 104.466 112.936 104.466 112.432C104.466 111.928 104.322 111.538 104.034 111.262C103.746 110.986 103.308 110.848 102.72 110.848H101.046V114.016H102.72ZM118.668 115.816C118.668 116.104 118.65 116.404 118.614 116.716H111.648C111.696 117.34 111.894 117.82 112.242 118.156C112.602 118.48 113.04 118.642 113.556 118.642C114.324 118.642 114.858 118.318 115.158 117.67H118.434C118.266 118.33 117.96 118.924 117.516 119.452C117.084 119.98 116.538 120.394 115.878 120.694C115.218 120.994 114.48 121.144 113.664 121.144C112.68 121.144 111.804 120.934 111.036 120.514C110.268 120.094 109.668 119.494 109.236 118.714C108.804 117.934 108.588 117.022 108.588 115.978C108.588 114.934 108.798 114.022 109.218 113.242C109.65 112.462 110.25 111.862 111.018 111.442C111.786 111.022 112.668 110.812 113.664 110.812C114.636 110.812 115.5 111.016 116.256 111.424C117.012 111.832 117.6 112.414 118.02 113.17C118.452 113.926 118.668 114.808 118.668 115.816ZM115.518 115.006C115.518 114.478 115.338 114.058 114.978 113.746C114.618 113.434 114.168 113.278 113.628 113.278C113.112 113.278 112.674 113.428 112.314 113.728C111.966 114.028 111.75 114.454 111.666 115.006H115.518ZM119.68 115.96C119.68 114.928 119.872 114.022 120.256 113.242C120.652 112.462 121.186 111.862 121.858 111.442C122.53 111.022 123.28 110.812 124.108 110.812C124.768 110.812 125.368 110.95 125.908 111.226C126.46 111.502 126.892 111.874 127.204 112.342V107.68H130.282V121H127.204V119.56C126.916 120.04 126.502 120.424 125.962 120.712C125.434 121 124.816 121.144 124.108 121.144C123.28 121.144 122.53 120.934 121.858 120.514C121.186 120.082 120.652 119.476 120.256 118.696C119.872 117.904 119.68 116.992 119.68 115.96ZM127.204 115.978C127.204 115.21 126.988 114.604 126.556 114.16C126.136 113.716 125.62 113.494 125.008 113.494C124.396 113.494 123.874 113.716 123.442 114.16C123.022 114.592 122.812 115.192 122.812 115.96C122.812 116.728 123.022 117.34 123.442 117.796C123.874 118.24 124.396 118.462 125.008 118.462C125.62 118.462 126.136 118.24 126.556 117.796C126.988 117.352 127.204 116.746 127.204 115.978ZM131.897 115.96C131.897 114.928 132.089 114.022 132.473 113.242C132.869 112.462 133.403 111.862 134.075 111.442C134.747 111.022 135.497 110.812 136.325 110.812C137.033 110.812 137.651 110.956 138.179 111.244C138.719 111.532 139.133 111.91 139.421 112.378V110.956H142.499V121H139.421V119.578C139.121 120.046 138.701 120.424 138.161 120.712C137.633 121 137.015 121.144 136.307 121.144C135.491 121.144 134.747 120.934 134.075 120.514C133.403 120.082 132.869 119.476 132.473 118.696C132.089 117.904 131.897 116.992 131.897 115.96ZM139.421 115.978C139.421 115.21 139.205 114.604 138.773 114.16C138.353 113.716 137.837 113.494 137.225 113.494C136.613 113.494 136.091 113.716 135.659 114.16C135.239 114.592 135.029 115.192 135.029 115.96C135.029 116.728 135.239 117.34 135.659 117.796C136.091 118.24 136.613 118.462 137.225 118.462C137.837 118.462 138.353 118.24 138.773 117.796C139.205 117.352 139.421 116.746 139.421 115.978ZM148.811 121.144C147.935 121.144 147.155 120.994 146.471 120.694C145.787 120.394 145.247 119.986 144.851 119.47C144.455 118.942 144.233 118.354 144.185 117.706H147.227C147.263 118.054 147.425 118.336 147.713 118.552C148.001 118.768 148.355 118.876 148.775 118.876C149.159 118.876 149.453 118.804 149.657 118.66C149.873 118.504 149.981 118.306 149.981 118.066C149.981 117.778 149.831 117.568 149.531 117.436C149.231 117.292 148.745 117.136 148.073 116.968C147.353 116.8 146.753 116.626 146.273 116.446C145.793 116.254 145.379 115.96 145.031 115.564C144.683 115.156 144.509 114.61 144.509 113.926C144.509 113.35 144.665 112.828 144.977 112.36C145.301 111.88 145.769 111.502 146.381 111.226C147.005 110.95 147.743 110.812 148.595 110.812C149.855 110.812 150.845 111.124 151.565 111.748C152.297 112.372 152.717 113.2 152.825 114.232H149.981C149.933 113.884 149.777 113.608 149.513 113.404C149.261 113.2 148.925 113.098 148.505 113.098C148.145 113.098 147.869 113.17 147.677 113.314C147.485 113.446 147.389 113.632 147.389 113.872C147.389 114.16 147.539 114.376 147.839 114.52C148.151 114.664 148.631 114.808 149.279 114.952C150.023 115.144 150.629 115.336 151.097 115.528C151.565 115.708 151.973 116.008 152.321 116.428C152.681 116.836 152.867 117.388 152.879 118.084C152.879 118.672 152.711 119.2 152.375 119.668C152.051 120.124 151.577 120.484 150.953 120.748C150.341 121.012 149.627 121.144 148.811 121.144ZM24.194 128.364V141H21.116V128.364H24.194ZM30.5106 141.144C29.6346 141.144 28.8546 140.994 28.1706 140.694C27.4866 140.394 26.9466 139.986 26.5506 139.47C26.1546 138.942 25.9326 138.354 25.8846 137.706H28.9266C28.9626 138.054 29.1246 138.336 29.4126 138.552C29.7006 138.768 30.0546 138.876 30.4746 138.876C30.8586 138.876 31.1526 138.804 31.3566 138.66C31.5726 138.504 31.6806 138.306 31.6806 138.066C31.6806 137.778 31.5306 137.568 31.2306 137.436C30.9306 137.292 30.4446 137.136 29.7726 136.968C29.0526 136.8 28.4526 136.626 27.9726 136.446C27.4926 136.254 27.0786 135.96 26.7306 135.564C26.3826 135.156 26.2086 134.61 26.2086 133.926C26.2086 133.35 26.3646 132.828 26.6766 132.36C27.0006 131.88 27.4686 131.502 28.0806 131.226C28.7046 130.95 29.4426 130.812 30.2946 130.812C31.5546 130.812 32.5446 131.124 33.2646 131.748C33.9966 132.372 34.4166 133.2 34.5246 134.232H31.6806C31.6326 133.884 31.4766 133.608 31.2126 133.404C30.9606 133.2 30.6246 133.098 30.2046 133.098C29.8446 133.098 29.5686 133.17 29.3766 133.314C29.1846 133.446 29.0886 133.632 29.0886 133.872C29.0886 134.16 29.2386 134.376 29.5386 134.52C29.8506 134.664 30.3306 134.808 30.9786 134.952C31.7226 135.144 32.3286 135.336 32.7966 135.528C33.2646 135.708 33.6726 136.008 34.0206 136.428C34.3806 136.836 34.5666 137.388 34.5786 138.084C34.5786 138.672 34.4106 139.2 34.0746 139.668C33.7506 140.124 33.2766 140.484 32.6526 140.748C32.0406 141.012 31.3266 141.144 30.5106 141.144ZM42.0597 138.39V141H40.4937C39.3777 141 38.5077 140.73 37.8837 140.19C37.2597 139.638 36.9477 138.744 36.9477 137.508V133.512H35.7237V130.956H36.9477V128.508H40.0257V130.956H42.0417V133.512H40.0257V137.544C40.0257 137.844 40.0977 138.06 40.2417 138.192C40.3857 138.324 40.6257 138.39 40.9617 138.39H42.0597ZM45.3222 129.912C44.7822 129.912 44.3382 129.756 43.9902 129.444C43.6542 129.12 43.4862 128.724 43.4862 128.256C43.4862 127.776 43.6542 127.38 43.9902 127.068C44.3382 126.744 44.7822 126.582 45.3222 126.582C45.8502 126.582 46.2822 126.744 46.6182 127.068C46.9662 127.38 47.1402 127.776 47.1402 128.256C47.1402 128.724 46.9662 129.12 46.6182 129.444C46.2822 129.756 45.8502 129.912 45.3222 129.912ZM46.8522 130.956V141H43.7742V130.956H46.8522ZM61.8988 130.848C63.1468 130.848 64.1368 131.226 64.8688 131.982C65.6128 132.738 65.9848 133.788 65.9848 135.132V141H62.9248V135.546C62.9248 134.898 62.7508 134.4 62.4028 134.052C62.0668 133.692 61.5988 133.512 60.9988 133.512C60.3988 133.512 59.9248 133.692 59.5768 134.052C59.2408 134.4 59.0728 134.898 59.0728 135.546V141H56.0128V135.546C56.0128 134.898 55.8388 134.4 55.4908 134.052C55.1548 133.692 54.6868 133.512 54.0868 133.512C53.4868 133.512 53.0128 133.692 52.6648 134.052C52.3288 134.4 52.1608 134.898 52.1608 135.546V141H49.0828V130.956H52.1608V132.216C52.4728 131.796 52.8808 131.466 53.3848 131.226C53.8888 130.974 54.4588 130.848 55.0948 130.848C55.8508 130.848 56.5228 131.01 57.1108 131.334C57.7108 131.658 58.1788 132.12 58.5148 132.72C58.8628 132.168 59.3368 131.718 59.9368 131.37C60.5368 131.022 61.1908 130.848 61.8988 130.848ZM77.6055 135.816C77.6055 136.104 77.5875 136.404 77.5515 136.716H70.5855C70.6335 137.34 70.8315 137.82 71.1795 138.156C71.5395 138.48 71.9775 138.642 72.4935 138.642C73.2615 138.642 73.7955 138.318 74.0955 137.67H77.3715C77.2035 138.33 76.8975 138.924 76.4535 139.452C76.0215 139.98 75.4755 140.394 74.8155 140.694C74.1555 140.994 73.4175 141.144 72.6015 141.144C71.6175 141.144 70.7415 140.934 69.9735 140.514C69.2055 140.094 68.6055 139.494 68.1735 138.714C67.7415 137.934 67.5255 137.022 67.5255 135.978C67.5255 134.934 67.7355 134.022 68.1555 133.242C68.5875 132.462 69.1875 131.862 69.9555 131.442C70.7235 131.022 71.6055 130.812 72.6015 130.812C73.5735 130.812 74.4375 131.016 75.1935 131.424C75.9495 131.832 76.5375 132.414 76.9575 133.17C77.3895 133.926 77.6055 134.808 77.6055 135.816ZM74.4555 135.006C74.4555 134.478 74.2755 134.058 73.9155 133.746C73.5555 133.434 73.1055 133.278 72.5655 133.278C72.0495 133.278 71.6115 133.428 71.2515 133.728C70.9035 134.028 70.6875 134.454 70.6035 135.006H74.4555ZM93.6473 130.956L90.9293 141H87.5273L85.9433 134.484L84.3053 141H80.9213L78.1853 130.956H81.2633L82.6853 138.138L84.3773 130.956H87.6353L89.3453 138.102L90.7493 130.956H93.6473ZM94.2091 135.96C94.2091 134.928 94.4011 134.022 94.7851 133.242C95.1811 132.462 95.7151 131.862 96.3871 131.442C97.0591 131.022 97.8091 130.812 98.6371 130.812C99.3451 130.812 99.9631 130.956 100.491 131.244C101.031 131.532 101.445 131.91 101.733 132.378V130.956H104.811V141H101.733V139.578C101.433 140.046 101.013 140.424 100.473 140.712C99.9451 141 99.3271 141.144 98.6191 141.144C97.8031 141.144 97.0591 140.934 96.3871 140.514C95.7151 140.082 95.1811 139.476 94.7851 138.696C94.4011 137.904 94.2091 136.992 94.2091 135.96ZM101.733 135.978C101.733 135.21 101.517 134.604 101.085 134.16C100.665 133.716 100.149 133.494 99.5371 133.494C98.9251 133.494 98.4031 133.716 97.9711 134.16C97.5511 134.592 97.3411 135.192 97.3411 135.96C97.3411 136.728 97.5511 137.34 97.9711 137.796C98.4031 138.24 98.9251 138.462 99.5371 138.462C100.149 138.462 100.665 138.24 101.085 137.796C101.517 137.352 101.733 136.746 101.733 135.978Z" fill="white"/>
<defs>
<linearGradient id="paint0_linear_265_1951" x1="371.591" y1="-25" x2="240.67" y2="192.113" gradientUnits="userSpaceOnUse">
<stop stop-color="white"/>
<stop offset="1" stop-color="white" stop-opacity="0"/>
</linearGradient>
<radialGradient id="paint1_radial_265_1951" cx="0" cy="0" r="1" gradientUnits="userSpaceOnUse" gradientTransform="translate(266.143 30.1377) scale(42.2281 42.2281)">
<stop stop-color="#330902"/>
<stop offset="1" stop-color="#170300"/>
</radialGradient>
<radialGradient id="paint2_radial_265_1951" cx="0" cy="0" r="1" gradientUnits="userSpaceOnUse" gradientTransform="translate(250.923 30.1598) scale(32.4644 32.4645)">
<stop stop-color="#330902"/>
<stop offset="1" stop-color="#170300"/>
</radialGradient>
</defs>
</svg>
