<svg width="14" height="14" viewBox="0 0 14 14" fill="none" xmlns="http://www.w3.org/2000/svg">
<path d="M10.9969 0.553499C10.5776 0.412799 10.1366 0.350499 9.69489 0.350499C8.72189 0.343499 7.77759 0.665499 6.99989 1.2598C6.93689 1.2115 6.85989 1.1688 6.78989 1.1275C6.71989 1.0848 6.59389 0.980499 6.48889 0.924499L6.22289 0.805499C6.08289 0.728499 5.93659 0.672499 5.78189 0.622799C5.76789 0.609499 5.74689 0.594799 5.71889 0.581499H5.67759C5.26389 0.440799 4.83689 0.363799 4.39589 0.350499H4.31889C4.12289 0.350499 3.92759 0.363799 3.73089 0.392499H3.64689C3.43689 0.419799 3.22759 0.468799 3.02459 0.538799C0.41289 1.3935 -0.51811 4.2285 0.27289 6.7065C0.72089 7.9728 1.44259 9.1215 2.38059 10.0658C3.74489 11.3818 5.23659 12.5438 6.83889 13.5378L7.02089 13.6505L7.19589 13.5448C8.79259 12.5438 10.2759 11.3818 11.6276 10.0728C12.5719 9.1285 13.2929 7.9728 13.7339 6.7065C14.5116 4.2285 13.5806 1.3935 10.9969 0.553499Z" fill="#70B9BE"/>
<path d="M12.1099 4.8578C12.0889 5.1525 11.8439 5.3828 11.5569 5.3905C11.4029 5.3758 11.2559 5.3065 11.1579 5.1875C11.0599 5.0685 11.0116 4.9138 11.0249 4.7535V4.7318C11.0249 4.2425 10.7246 3.8008 10.2759 3.6328C9.98195 3.5285 9.82795 3.2065 9.92595 2.9125C10.0309 2.6185 10.3459 2.4638 10.6329 2.5625C11.5366 2.9055 12.1309 3.7938 12.1099 4.7745V4.8578Z" fill="#C6E3E5"/>
</svg>
