<svg width="17" height="17" viewBox="0 0 17 17" fill="none" xmlns="http://www.w3.org/2000/svg">
<g clip-path="url(#clip0_265_1908)">
<path d="M12.7497 13.5956C11.6884 14.6471 10.2791 15.2243 8.777 15.2243C7.27487 15.2243 5.86564 14.6471 4.80427 13.5956C3.74685 12.5461 3.16379 11.1547 3.16379 9.6743C3.16379 8.81453 3.35748 7.99034 3.73894 7.22347C4.11052 6.47438 4.66394 5.80435 5.33594 5.28849C5.76452 4.96078 6.15324 4.58399 6.49416 4.16585C6.98828 3.56302 7.37567 2.89101 7.64448 2.1696C7.75474 1.87201 7.83486 1.56412 7.88363 1.25053C8.35996 1.68931 8.75921 2.21901 9.09324 2.83963C9.75338 4.0769 10.0578 5.17781 9.99847 6.11466C9.9843 6.33531 10.0203 6.55629 10.1039 6.76101C10.1874 6.96573 10.3162 7.14884 10.4807 7.2966C10.6233 7.42536 10.79 7.52451 10.9712 7.5883C11.1523 7.65209 11.3444 7.67924 11.5362 7.66818C11.9255 7.64841 12.2833 7.47646 12.5442 7.18591C12.807 6.89142 13.0343 6.59099 13.2241 6.28464C13.5008 6.63843 13.732 7.02384 13.9159 7.4389C14.2301 8.14648 14.3902 8.89952 14.3902 9.6743C14.3902 11.1547 13.8071 12.5481 12.7497 13.5956Z" stroke="#97A2B0" stroke-linejoin="round"/>
<path d="M9.62424 12.192C9.19826 12.6141 8.63267 12.8457 8.02981 12.8457C7.42694 12.8457 6.86135 12.6141 6.43537 12.192C6.01099 11.7708 5.77698 11.2124 5.77698 10.6182C5.77698 10.2732 5.85472 9.94239 6.00781 9.63461C6.15694 9.33397 6.37905 9.06506 6.64876 8.85802C6.82076 8.72649 6.97678 8.57527 7.1136 8.40745C7.31191 8.16551 7.46739 7.89581 7.57527 7.60627C7.61953 7.48684 7.65168 7.36327 7.67126 7.23741C7.86243 7.41351 8.02267 7.6261 8.15672 7.87518C8.42167 8.37176 8.54383 8.8136 8.52003 9.1896C8.51435 9.27815 8.52881 9.36684 8.56233 9.44901C8.59586 9.53117 8.64757 9.60466 8.71359 9.66396C8.77079 9.71564 8.8377 9.75543 8.91042 9.78103C8.98314 9.80663 9.06022 9.81753 9.13718 9.81309C9.29345 9.80516 9.43703 9.73615 9.54174 9.61954C9.64724 9.50134 9.73846 9.38077 9.81462 9.25782C9.92567 9.39981 10.0185 9.55449 10.0923 9.72107C10.2184 10.0051 10.2826 10.3073 10.2826 10.6182C10.2826 11.2124 10.0486 11.7716 9.62424 12.192Z" stroke="#97A2B0" stroke-linejoin="round"/>
</g>
<defs>
<clipPath id="clip0_265_1908">
<rect width="16" height="16" fill="white" transform="translate(0.776978 0.237411)"/>
</clipPath>
</defs>
</svg>
