<svg width="21" height="20" viewBox="0 0 21 20" fill="none" xmlns="http://www.w3.org/2000/svg">
<g clip-path="url(#clip0_265_1749)">
<path fill-rule="evenodd" clip-rule="evenodd" d="M20.1 10.2273C20.1 9.51819 20.0364 8.83638 19.9182 8.18183H10.5V12.05H15.8818C15.65 13.3 14.9455 14.3591 13.8864 15.0682V17.5773H17.1182C19.0091 15.8364 20.1 13.2727 20.1 10.2273Z" fill="#4285F4"/>
<path fill-rule="evenodd" clip-rule="evenodd" d="M10.5 20C13.2 20 15.4636 19.1045 17.1181 17.5773L13.8863 15.0682C12.9909 15.6682 11.8454 16.0227 10.5 16.0227C7.89542 16.0227 5.69087 14.2636 4.90451 11.9H1.5636V14.4909C3.20905 17.7591 6.59087 20 10.5 20Z" fill="#34A853"/>
<path fill-rule="evenodd" clip-rule="evenodd" d="M4.90455 11.9C4.70455 11.3 4.59091 10.6591 4.59091 10C4.59091 9.34092 4.70455 8.70001 4.90455 8.10001V5.5091H1.56364C0.886364 6.8591 0.5 8.38637 0.5 10C0.5 11.6136 0.886364 13.1409 1.56364 14.4909L4.90455 11.9Z" fill="#FBBC05"/>
<path fill-rule="evenodd" clip-rule="evenodd" d="M10.5 3.97727C11.9681 3.97727 13.2863 4.48182 14.3227 5.47273L17.1909 2.60455C15.4591 0.990909 13.1954 0 10.5 0C6.59087 0 3.20905 2.24091 1.5636 5.50909L4.90451 8.1C5.69087 5.73636 7.89542 3.97727 10.5 3.97727Z" fill="#EA4335"/>
</g>
<defs>
<clipPath id="clip0_265_1749">
<rect x="0.5" width="20" height="20" rx="6" fill="white"/>
</clipPath>
</defs>
</svg>
