<svg width="32" height="32" viewBox="0 0 32 32" fill="none" xmlns="http://www.w3.org/2000/svg">
<path d="M12.0312 27.5681V23.4998C12.0312 22.4689 12.8627 21.6314 13.8927 21.6249H17.6745C18.709 21.6249 19.5477 22.4643 19.5477 23.4998V23.4998V27.5563C19.5477 28.4505 20.2685 29.1772 21.1618 29.1836H23.7419C24.9469 29.1868 26.1036 28.7098 26.9568 27.8581C27.81 27.0063 28.2895 25.8498 28.2895 24.6437V13.0874C28.2894 12.1131 27.858 11.1889 27.1113 10.5638L18.346 3.54751C16.8138 2.32028 14.6255 2.35992 13.1387 3.64185L4.56186 10.5638C3.77992 11.1705 3.31257 12.0974 3.28947 13.0874V24.6319C3.28947 27.1458 5.3255 29.1836 7.83707 29.1836H10.3583C10.7884 29.1868 11.202 29.018 11.5072 28.7147C11.8124 28.4113 11.9841 27.9986 11.9841 27.5681H12.0312Z" fill="#97A2B0"/>
<path fill-rule="evenodd" clip-rule="evenodd" d="M10.9743 15.7721C10.9743 15.2227 11.4162 14.7772 11.9612 14.7772H19.618C20.163 14.7772 20.6049 15.2227 20.6049 15.7721C20.6049 16.3216 20.163 16.767 19.618 16.767H11.9612C11.4162 16.767 10.9743 16.3216 10.9743 15.7721Z" fill="#C6E3E5"/>
</svg>
