<svg width="20" height="20" viewBox="0 0 20 20" fill="none" xmlns="http://www.w3.org/2000/svg">
<g clip-path="url(#clip0_265_2103)">
<path fill-rule="evenodd" clip-rule="evenodd" d="M10 0.833344C10.221 0.833344 10.433 0.921141 10.5893 1.07742C10.7455 1.2337 10.8333 1.44566 10.8333 1.66668V3.33334C10.8333 3.55436 10.7455 3.76632 10.5893 3.9226C10.433 4.07888 10.221 4.16668 10 4.16668C9.77899 4.16668 9.56703 4.07888 9.41075 3.9226C9.25447 3.76632 9.16668 3.55436 9.16668 3.33334V1.66668C9.16668 1.44566 9.25447 1.2337 9.41075 1.07742C9.56703 0.921141 9.77899 0.833344 10 0.833344ZM5.00001 10C5.00001 8.67393 5.52679 7.40216 6.46448 6.46448C7.40216 5.52679 8.67393 5.00001 10 5.00001C11.3261 5.00001 12.5979 5.52679 13.5355 6.46448C14.4732 7.40216 15 8.67393 15 10C15 11.3261 14.4732 12.5979 13.5355 13.5355C12.5979 14.4732 11.3261 15 10 15C8.67393 15 7.40216 14.4732 6.46448 13.5355C5.52679 12.5979 5.00001 11.3261 5.00001 10ZM10 6.66668C9.11595 6.66668 8.26811 7.01787 7.64299 7.64299C7.01787 8.26811 6.66668 9.11595 6.66668 10C6.66668 10.8841 7.01787 11.7319 7.64299 12.357C8.26811 12.9822 9.11595 13.3333 10 13.3333C10.8841 13.3333 11.7319 12.9822 12.357 12.357C12.9822 11.7319 13.3333 10.8841 13.3333 10C13.3333 9.11595 12.9822 8.26811 12.357 7.64299C11.7319 7.01787 10.8841 6.66668 10 6.66668ZM10.8333 16.6667C10.8333 16.4457 10.7455 16.2337 10.5893 16.0774C10.433 15.9211 10.221 15.8333 10 15.8333C9.77899 15.8333 9.56703 15.9211 9.41075 16.0774C9.25447 16.2337 9.16668 16.4457 9.16668 16.6667V18.3333C9.16668 18.5544 9.25447 18.7663 9.41075 18.9226C9.56703 19.0789 9.77899 19.1667 10 19.1667C10.221 19.1667 10.433 19.0789 10.5893 18.9226C10.7455 18.7663 10.8333 18.5544 10.8333 18.3333V16.6667ZM19.1667 10C19.1667 10.221 19.0789 10.433 18.9226 10.5893C18.7663 10.7455 18.5544 10.8333 18.3333 10.8333H16.6667C16.4457 10.8333 16.2337 10.7455 16.0774 10.5893C15.9211 10.433 15.8333 10.221 15.8333 10C15.8333 9.779 15.9211 9.56703 16.0774 9.41075C16.2337 9.25447 16.4457 9.16668 16.6667 9.16668H18.3333C18.5544 9.16668 18.7663 9.25447 18.9226 9.41075C19.0789 9.56703 19.1667 9.779 19.1667 10ZM3.33334 10.8333C3.55436 10.8333 3.76632 10.7455 3.9226 10.5893C4.07888 10.433 4.16668 10.221 4.16668 10C4.16668 9.779 4.07888 9.56703 3.9226 9.41075C3.76632 9.25447 3.55436 9.16668 3.33334 9.16668H1.66668C1.44566 9.16668 1.2337 9.25447 1.07742 9.41075C0.921141 9.56703 0.833344 9.779 0.833344 10C0.833344 10.221 0.921141 10.433 1.07742 10.5893C1.2337 10.7455 1.44566 10.8333 1.66668 10.8333H3.33334ZM16.4817 3.51834C16.6379 3.67462 16.7257 3.88654 16.7257 4.10751C16.7257 4.32848 16.6379 4.5404 16.4817 4.69668L15.3033 5.87501C15.2265 5.9546 15.1345 6.01809 15.0328 6.06176C14.9312 6.10543 14.8218 6.12842 14.7112 6.12938C14.6005 6.13035 14.4908 6.10926 14.3884 6.06736C14.286 6.02546 14.1929 5.96358 14.1147 5.88534C14.0364 5.8071 13.9746 5.71405 13.9327 5.61164C13.8908 5.50922 13.8697 5.39949 13.8706 5.28884C13.8716 5.17819 13.8946 5.06884 13.9383 4.96717C13.9819 4.8655 14.0454 4.77355 14.125 4.69668L15.3033 3.51834C15.4596 3.36212 15.6715 3.27435 15.8925 3.27435C16.1135 3.27435 16.3254 3.36212 16.4817 3.51834ZM5.87501 15.3033C5.9546 15.2265 6.01809 15.1345 6.06176 15.0328C6.10543 14.9312 6.12842 14.8218 6.12938 14.7112C6.13035 14.6005 6.10926 14.4908 6.06736 14.3884C6.02546 14.286 5.96358 14.1929 5.88534 14.1147C5.80709 14.0364 5.71405 13.9746 5.61164 13.9327C5.50922 13.8908 5.39949 13.8697 5.28884 13.8706C5.17819 13.8716 5.06884 13.8946 4.96717 13.9383C4.8655 13.9819 4.77355 14.0454 4.69668 14.125L3.51834 15.3033C3.43875 15.3802 3.37527 15.4722 3.33159 15.5738C3.28792 15.6755 3.26493 15.7849 3.26397 15.8955C3.26301 16.0062 3.28409 16.1159 3.32599 16.2183C3.36789 16.3207 3.42977 16.4138 3.50801 16.492C3.58626 16.5702 3.6793 16.6321 3.78171 16.674C3.88413 16.7159 3.99386 16.737 4.10451 16.7361C4.21516 16.7351 4.32451 16.7121 4.42618 16.6684C4.52785 16.6248 4.6198 16.5613 4.69668 16.4817L5.87501 15.3033ZM3.51834 3.51834C3.67462 3.36212 3.88654 3.27435 4.10751 3.27435C4.32848 3.27435 4.5404 3.36212 4.69668 3.51834L5.87501 4.69668C5.9546 4.77355 6.01809 4.8655 6.06176 4.96717C6.10543 5.06884 6.12842 5.17819 6.12938 5.28884C6.13035 5.39949 6.10926 5.50922 6.06736 5.61164C6.02546 5.71405 5.96358 5.8071 5.88534 5.88534C5.80709 5.96358 5.71405 6.02546 5.61164 6.06736C5.50922 6.10926 5.39949 6.13035 5.28884 6.12938C5.17819 6.12842 5.06884 6.10543 4.96717 6.06176C4.8655 6.01809 4.77355 5.9546 4.69668 5.87501L3.51834 4.69668C3.36212 4.5404 3.27435 4.32848 3.27435 4.10751C3.27435 3.88654 3.36212 3.67462 3.51834 3.51834ZM15.3033 14.125C15.1462 13.9732 14.9357 13.8892 14.7172 13.8911C14.4987 13.893 14.2897 13.9807 14.1352 14.1352C13.9807 14.2897 13.893 14.4987 13.8911 14.7172C13.8892 14.9357 13.9732 15.1462 14.125 15.3033L15.3033 16.4817C15.4605 16.6335 15.671 16.7175 15.8895 16.7156C16.108 16.7137 16.317 16.626 16.4715 16.4715C16.626 16.317 16.7137 16.108 16.7156 15.8895C16.7175 15.671 16.6335 15.4605 16.4817 15.3033L15.3033 14.125Z" fill="#4D8194"/>
</g>
<defs>
<clipPath id="clip0_265_2103">
<rect width="20" height="20" fill="white"/>
</clipPath>
</defs>
</svg>
